<?xml version="1.0" encoding="utf-8"?>
<!-- Generator: Adobe Illustrator 23.0.1, SVG Export Plug-In . SVG Version: 6.00 Build 0)  -->
<svg version="1.1" id="Layer_1" xmlns="http://www.w3.org/2000/svg" xmlns:xlink="http://www.w3.org/1999/xlink" x="0px" y="0px"
	 viewBox="0 0 264 280" style="enable-background:new 0 0 264 280;" xml:space="preserve">
<style type="text/css">
	.st0{fill-rule:evenodd;clip-rule:evenodd;fill:#E6E6E6;}
	.st1{filter:url(#Adobe_OpacityMaskFilter);}
	.st2{fill-rule:evenodd;clip-rule:evenodd;fill:#FFFFFF;}
	.st3{mask:url(#mask-2_1_);}
	.st4{fill-rule:evenodd;clip-rule:evenodd;fill:#3E92A3;}
	.st5{filter:url(#Adobe_OpacityMaskFilter_1_);}
	.st6{mask:url(#mask-4_1_);}
	.st7{fill-rule:evenodd;clip-rule:evenodd;fill:#D0C6AC;}
	.st8{filter:url(#Adobe_OpacityMaskFilter_2_);}
	.st9{mask:url(#mask-6_1_);}
	.st10{fill-rule:evenodd;clip-rule:evenodd;fill:#FFDBB4;}
	.st11{filter:url(#Adobe_OpacityMaskFilter_3_);}
	.st12{mask:url(#mask-6_2_);fill-rule:evenodd;clip-rule:evenodd;fill-opacity:0.1;}
	.st13{fill-rule:evenodd;clip-rule:evenodd;fill:#B7C1DB;}
	.st14{filter:url(#Adobe_OpacityMaskFilter_4_);}
	.st15{mask:url(#react-mask-269_1_);}
	.st16{fill-rule:evenodd;clip-rule:evenodd;fill:#25557C;}
	.st17{filter:url(#Adobe_OpacityMaskFilter_5_);}
	.st18{mask:url(#react-mask-269_2_);fill-rule:evenodd;clip-rule:evenodd;fill:#F4F4F4;}
	.st19{filter:url(#Adobe_OpacityMaskFilter_6_);}
	.st20{mask:url(#react-mask-269_3_);fill-rule:evenodd;clip-rule:evenodd;fill-opacity:0.16;}
	.st21{fill-rule:evenodd;clip-rule:evenodd;fill-opacity:0.7;}
	.st22{filter:url(#Adobe_OpacityMaskFilter_7_);}
	.st23{mask:url(#react-mask-245_1_);fill-rule:evenodd;clip-rule:evenodd;fill:#FFFFFF;}
	.st24{filter:url(#Adobe_OpacityMaskFilter_8_);}
	.st25{mask:url(#react-mask-245_2_);}
	.st26{fill-rule:evenodd;clip-rule:evenodd;fill:#FF4F6D;}
	.st27{fill-rule:evenodd;clip-rule:evenodd;fill-opacity:0.16;}
	.st28{filter:url(#Adobe_OpacityMaskFilter_9_);}
	.st29{mask:url(#react-mask-234_1_);fill-rule:evenodd;clip-rule:evenodd;fill-opacity:0.7;}
	.st30{filter:url(#Adobe_OpacityMaskFilter_10_);}
	.st31{mask:url(#react-mask-235_1_);fill-rule:evenodd;clip-rule:evenodd;fill-opacity:0.7;}
	.st32{fill-rule:evenodd;clip-rule:evenodd;fill-opacity:0.6;}
	.st33{filter:url(#Adobe_OpacityMaskFilter_11_);}
	.st34{mask:url(#react-mask-213_1_);}
	.st35{fill-rule:evenodd;clip-rule:evenodd;fill:#331B0C;}
	.st36{filter:url(#Adobe_OpacityMaskFilter_12_);}
	.st37{mask:url(#react-mask-226_1_);}
	.st38{fill-rule:evenodd;clip-rule:evenodd;fill:#724133;}
	.st39{fill-rule:evenodd;clip-rule:evenodd;fill:#1F3140;}
	.st40{filter:url(#Adobe_OpacityMaskFilter_13_);}
	.st41{mask:url(#react-mask-212_1_);}
	.st42{fill:#252C2F;}
</style>
<desc>Created with getavataaars.com</desc>
<g>
	<g transform="translate(-825.000000, -1100.000000)">
		<g transform="translate(825.000000, 1100.000000)">
			<g id="Circle" transform="translate(12.000000, 40.000000)">
				<g id="Circle-Background">
					<circle class="st0" cx="120" cy="118" r="120"/>
				</g>
				<defs>
					<filter id="Adobe_OpacityMaskFilter" filterUnits="userSpaceOnUse" x="0" y="-2" width="240" height="240">
						<feColorMatrix  type="matrix" values="1 0 0 0 0  0 1 0 0 0  0 0 1 0 0  0 0 0 1 0"/>
					</filter>
				</defs>
				<mask maskUnits="userSpaceOnUse" x="0" y="-2" width="240" height="240" id="mask-2_1_">
					<g class="st1">
						<circle id="path-1_1_" class="st2" cx="120" cy="118" r="120"/>
					</g>
				</mask>
				<g class="st3">
					<rect y="-2" class="st4" width="240" height="240"/>
				</g>
			</g>
			<g id="Mask">
			</g>
			<defs>
				<filter id="Adobe_OpacityMaskFilter_1_" filterUnits="userSpaceOnUse" x="-1" y="-2" width="281" height="316">
					<feColorMatrix  type="matrix" values="1 0 0 0 0  0 1 0 0 0  0 0 1 0 0  0 0 0 1 0"/>
				</filter>
			</defs>
			<mask maskUnits="userSpaceOnUse" x="-1" y="-2" width="281" height="316" id="mask-4_1_">
				<g class="st5">
					<path id="path-3_1_" class="st2" d="M12,158c0,66.3,53.7,120,120,120s120-53.7,120-120h12V-2H0v160H12z"/>
				</g>
			</mask>
			<g id="Avataaar" class="st6">
				<g id="Body" transform="translate(32.000000, 36.000000)">
					<g>
						<path class="st7" d="M124,142.6V161h4l0,0c39.8,0,72,32.2,72,72v9H0v-9c0-39.8,32.2-72,72-72l0,0h4v-18.4
							c-17.2-8.2-29.6-24.9-31.7-44.7C38.5,97.1,34,92.1,34,86V72c0-5.9,4.3-10.9,10-11.8V54l0,0c0-30.9,25.1-56,56-56l0,0l0,0
							c30.9,0,56,25.1,56,56v6.2c5.7,1,10,5.9,10,11.8v14c0,6.1-4.5,11.1-10.3,11.9C153.6,117.7,141.2,134.4,124,142.6z"/>
					</g>
					<defs>
						<filter id="Adobe_OpacityMaskFilter_2_" filterUnits="userSpaceOnUse" x="-32" y="-2" width="264" height="244">
							<feColorMatrix  type="matrix" values="1 0 0 0 0  0 1 0 0 0  0 0 1 0 0  0 0 0 1 0"/>
						</filter>
					</defs>
					<mask maskUnits="userSpaceOnUse" x="-32" y="-2" width="264" height="244" id="mask-6_1_">
						<g class="st8">
							<path id="path-5_1_" class="st2" d="M124,142.6V161h4l0,0c39.8,0,72,32.2,72,72v9H0v-9c0-39.8,32.2-72,72-72l0,0h4v-18.4
								c-17.2-8.2-29.6-24.9-31.7-44.7C38.5,97.1,34,92.1,34,86V72c0-5.9,4.3-10.9,10-11.8V54l0,0c0-30.9,25.1-56,56-56l0,0l0,0
								c30.9,0,56,25.1,56,56v6.2c5.7,1,10,5.9,10,11.8v14c0,6.1-4.5,11.1-10.3,11.9C153.6,117.7,141.2,134.4,124,142.6z"/>
						</g>
					</mask>
					<g class="st9">
						<g id="Color" transform="translate(-32.000000, 0.000000)">
							<rect y="-2" class="st10" width="264" height="244"/>
						</g>
					</g>
					<defs>
						<filter id="Adobe_OpacityMaskFilter_3_" filterUnits="userSpaceOnUse" x="44" y="77" width="112" height="79">
							<feColorMatrix  type="matrix" values="1 0 0 0 0  0 1 0 0 0  0 0 1 0 0  0 0 0 1 0"/>
						</filter>
					</defs>
					<mask maskUnits="userSpaceOnUse" x="44" y="77" width="112" height="79" id="mask-6_2_">
						<g class="st11">
							<path id="path-5_2_" class="st2" d="M124,142.6V161h4l0,0c39.8,0,72,32.2,72,72v9H0v-9c0-39.8,32.2-72,72-72l0,0h4v-18.4
								c-17.2-8.2-29.6-24.9-31.7-44.7C38.5,97.1,34,92.1,34,86V72c0-5.9,4.3-10.9,10-11.8V54l0,0c0-30.9,25.1-56,56-56l0,0l0,0
								c30.9,0,56,25.1,56,56v6.2c5.7,1,10,5.9,10,11.8v14c0,6.1-4.5,11.1-10.3,11.9C153.6,117.7,141.2,134.4,124,142.6z"/>
						</g>
					</mask>
					<path id="Neck-Shadow" class="st12" d="M156,77v23c0,30.9-25.1,56-56,56s-56-25.1-56-56V77v15c0,30.9,25.1,56,56,56
						s56-25.1,56-56V77z"/>
				</g>
				<g transform="translate(0.000000, 170.000000)">
					<g id="Hoodie">
						<path class="st13" d="M108,11.1c-17.9,2-31.7,7.5-32,21.6C50.1,43.6,32,69.2,32,99l0,0v9h200v-9c0-29.8-18.1-55.4-44-66.4
							c-0.3-14.1-14.1-19.6-32-21.6V30l0,0c0,13.3-10.7,24-24,24l0,0c-13.3,0-24-10.7-24-24V11.1z"/>
					</g>
					<defs>
						<filter id="Adobe_OpacityMaskFilter_4_" filterUnits="userSpaceOnUse" x="0" y="-2" width="264" height="110">
							<feColorMatrix  type="matrix" values="1 0 0 0 0  0 1 0 0 0  0 0 1 0 0  0 0 0 1 0"/>
						</filter>
					</defs>
					<mask maskUnits="userSpaceOnUse" x="0" y="-2" width="264" height="110" id="react-mask-269_1_">
						<g class="st14">
							<path id="react-path-268_1_" class="st2" d="M108,11.1c-17.9,2-31.7,7.5-32,21.6C50.1,43.6,32,69.2,32,99l0,0v9h200v-9
								c0-29.8-18.1-55.4-44-66.4c-0.3-14.1-14.1-19.6-32-21.6V30l0,0c0,13.3-10.7,24-24,24l0,0c-13.3,0-24-10.7-24-24V11.1z"/>
						</g>
					</mask>
					<g class="st15">
						<rect y="-2" class="st16" width="264" height="110"/>
					</g>
					<defs>
						<filter id="Adobe_OpacityMaskFilter_5_" filterUnits="userSpaceOnUse" x="95" y="56.2" width="74" height="51.8">
							<feColorMatrix  type="matrix" values="1 0 0 0 0  0 1 0 0 0  0 0 1 0 0  0 0 0 1 0"/>
						</filter>
					</defs>
					<mask maskUnits="userSpaceOnUse" x="95" y="56.2" width="74" height="51.8" id="react-mask-269_2_">
						<g class="st17">
							<path id="react-path-268_2_" class="st2" d="M108,11.1c-17.9,2-31.7,7.5-32,21.6C50.1,43.6,32,69.2,32,99l0,0v9h200v-9
								c0-29.8-18.1-55.4-44-66.4c-0.3-14.1-14.1-19.6-32-21.6V30l0,0c0,13.3-10.7,24-24,24l0,0c-13.3,0-24-10.7-24-24V11.1z"/>
						</g>
					</mask>
					<path id="Straps" class="st18" d="M102,59.7V108h-7V56.2C97.2,57.5,99.5,58.7,102,59.7z M169,56.2v40.3c0,1.9-1.6,3.5-3.5,3.5
						s-3.5-1.6-3.5-3.5V59.7C164.5,58.7,166.8,57.5,169,56.2z"/>
					<defs>
						<filter id="Adobe_OpacityMaskFilter_6_" filterUnits="userSpaceOnUse" x="65.5" y="10.7" width="133" height="55.3">
							<feColorMatrix  type="matrix" values="1 0 0 0 0  0 1 0 0 0  0 0 1 0 0  0 0 0 1 0"/>
						</filter>
					</defs>
					<mask maskUnits="userSpaceOnUse" x="65.5" y="10.7" width="133" height="55.3" id="react-mask-269_3_">
						<g class="st19">
							<path id="react-path-268_3_" class="st2" d="M108,11.1c-17.9,2-31.7,7.5-32,21.6C50.1,43.6,32,69.2,32,99l0,0v9h200v-9
								c0-29.8-18.1-55.4-44-66.4c-0.3-14.1-14.1-19.6-32-21.6V30l0,0c0,13.3-10.7,24-24,24l0,0c-13.3,0-24-10.7-24-24V11.1z"/>
						</g>
					</mask>
					<path id="Shadow" class="st20" d="M91,10.7c-15.1,2.8-25.5,8.5-25.5,19.6C65.5,50,98.5,66,132,66s66.5-16,66.5-35.7
						c0-11.1-10.4-16.7-25.5-19.6c9.1,3.4,15,9,15,18.4c0,20.4-27.8,36.9-56,36.9S76,49.5,76,29.1C76,19.7,81.9,14.1,91,10.7z"/>
				</g>
				<g id="Face" transform="translate(76.000000, 82.000000)">
					<g transform="translate(2.000000, 52.000000)">
						<g id="Mouth">
							<path class="st21" d="M35.1,13.1C36.2,22.6,44.2,30,54,30c9.8,0,17.9-7.4,18.9-17c0.1-0.8-0.8-2-1.8-2c-14.9,0-26.3,0-34,0
								C36,11,35,12.2,35.1,13.1z"/>
						</g>
						<defs>
							<filter id="Adobe_OpacityMaskFilter_7_" filterUnits="userSpaceOnUse" x="39" y="0" width="31" height="16">
								<feColorMatrix  type="matrix" values="1 0 0 0 0  0 1 0 0 0  0 0 1 0 0  0 0 0 1 0"/>
							</filter>
						</defs>
						<mask maskUnits="userSpaceOnUse" x="39" y="0" width="31" height="16" id="react-mask-245_1_">
							<g class="st22">
								<path id="react-path-244_1_" class="st2" d="M35.1,13.1C36.2,22.6,44.2,30,54,30c9.8,0,17.9-7.4,18.9-17
									c0.1-0.8-0.8-2-1.8-2c-14.9,0-26.3,0-34,0C36,11,35,12.2,35.1,13.1z"/>
							</g>
						</mask>
						<path id="Teeth" class="st23" d="M44,0h21c2.8,0,5,2.2,5,5v6c0,2.8-2.2,5-5,5H44c-2.8,0-5-2.2-5-5V5C39,2.2,41.2,0,44,0z"/>
						<defs>
							<filter id="Adobe_OpacityMaskFilter_8_" filterUnits="userSpaceOnUse" x="38" y="22" width="32" height="22">
								<feColorMatrix  type="matrix" values="1 0 0 0 0  0 1 0 0 0  0 0 1 0 0  0 0 0 1 0"/>
							</filter>
						</defs>
						<mask maskUnits="userSpaceOnUse" x="38" y="22" width="32" height="22" id="react-mask-245_2_">
							<g class="st24">
								<path id="react-path-244_2_" class="st2" d="M35.1,13.1C36.2,22.6,44.2,30,54,30c9.8,0,17.9-7.4,18.9-17
									c0.1-0.8-0.8-2-1.8-2c-14.9,0-26.3,0-34,0C36,11,35,12.2,35.1,13.1z"/>
							</g>
						</mask>
						<g id="Tongue" class="st25">
							<g transform="translate(38.000000, 24.000000)">
								<circle class="st26" cx="11" cy="9" r="11"/>
								<circle class="st26" cx="21" cy="9" r="11"/>
							</g>
						</g>
					</g>
					<g transform="translate(28.000000, 40.000000)">
						<path id="Nose" class="st27" d="M16,6c0,4.4,5.4,8,12,8l0,0c6.6,0,12-3.6,12-8"/>
					</g>
					<g transform="translate(0.000000, 8.000000)">
						<g id="Eye" transform="translate(16.000000, 13.000000)">
							<g id="The-white-stuff">
								<path class="st2" d="M14,12c9.6,0,14,4.5,14-2.5S21.7-2,14-2S0,2.6,0,9.6S4.4,12,14,12z"/>
							</g>
							<defs>
								<filter id="Adobe_OpacityMaskFilter_9_" filterUnits="userSpaceOnUse" x="8" y="2" width="12" height="12">
									<feColorMatrix  type="matrix" values="1 0 0 0 0  0 1 0 0 0  0 0 1 0 0  0 0 0 1 0"/>
								</filter>
							</defs>
							<mask maskUnits="userSpaceOnUse" x="8" y="2" width="12" height="12" id="react-mask-234_1_">
								<g class="st28">
									<path id="react-path-232_1_" class="st2" d="M14,12c9.6,0,14,4.5,14-2.5S21.7-2,14-2S0,2.6,0,9.6S4.4,12,14,12z"/>
								</g>
							</mask>
							<circle class="st29" cx="14" cy="8" r="6"/>
						</g>
						<g transform="translate(68.000000, 13.000000)">
							<g id="Eyeball-Mask">
								<path class="st2" d="M14,12c9.6,0,14,4.5,14-2.5S21.7-2,14-2S0,2.6,0,9.6S4.4,12,14,12z"/>
							</g>
							<defs>
								<filter id="Adobe_OpacityMaskFilter_10_" filterUnits="userSpaceOnUse" x="8" y="2" width="12" height="12">
									<feColorMatrix  type="matrix" values="1 0 0 0 0  0 1 0 0 0  0 0 1 0 0  0 0 0 1 0"/>
								</filter>
							</defs>
							<mask maskUnits="userSpaceOnUse" x="8" y="2" width="12" height="12" id="react-mask-235_1_">
								<g class="st30">
									<path id="react-path-233_1_" class="st2" d="M14,12c9.6,0,14,4.5,14-2.5S21.7-2,14-2S0,2.6,0,9.6S4.4,12,14,12z"/>
								</g>
							</mask>
							<circle class="st31" cx="14" cy="8" r="6"/>
						</g>
					</g>
					<g>
						<path id="Eye-Browse-Reddit" class="st32" d="M22.8-0.4l0.9-0.4c5.2-2.1,13.2-1.2,18,1.1c0.6,0.3,0.2,1.2-0.4,1.1
							c-14.9-1.2-25,8.1-28.4,14.4c-0.1,0.2-0.4,0.2-0.5,0C10.2,10.6,16.9,1.9,22.8-0.4z"/>
						<path class="st32" d="M89.2-0.4l-0.9-0.4c-5.2-2.1-13.2-1.2-18,1.1c-0.6,0.3-0.2,1.2,0.4,1.1c14.9-1.2,25,8.1,28.4,14.4
							c0.1,0.2,0.4,0.2,0.5,0C101.8,10.6,95.1,1.9,89.2-0.4z"/>
					</g>
				</g>
				<g id="Top">
					<defs>
						<filter id="Adobe_OpacityMaskFilter_11_" filterUnits="userSpaceOnUse" x="-1" y="-2" width="281" height="316">
							<feColorMatrix  type="matrix" values="1 0 0 0 0  0 1 0 0 0  0 0 1 0 0  0 0 0 1 0"/>
						</filter>
					</defs>
					<mask maskUnits="userSpaceOnUse" x="-1" y="-2" width="281" height="316" id="react-mask-213_1_">
						<g class="st33">
							<rect id="react-path-215_1_" y="-2" class="st2" width="264" height="280"/>
						</g>
					</mask>
					<g class="st34">
						<g transform="translate(-1.000000, 0.000000)">
							<g transform="translate(49.000000, 72.000000)">
								<g id="Lite-Beard">
									<path class="st35" d="M101.4,96.2c-2.5,2.3-5.2,3.3-8.6,2.6c-0.6-0.1-3-4.5-8.9-4.5c-5.9,0-8.3,4.4-8.9,4.5
										c-3.4,0.7-6.1-0.3-8.6-2.6c-4.7-4.3-8.7-10.3-6.3-16.7c1.2-3.4,3.2-7.1,6.9-8.2c3.9-1.2,9.3,0,13.3-0.8
										c1.3-0.3,2.7-0.7,3.6-1.5c0.9,0.8,2.3,1.2,3.6,1.5c3.9,0.8,9.4-0.4,13.3,0.8c3.6,1.1,5.6,4.8,6.9,8.2
										C110.1,85.9,106.2,91.9,101.4,96.2 M140.1,24c-3.4,8.4-2.1,18.9-2.7,27.7c-0.5,7.2-2,17.9-8.4,22.5
										c-3.3,2.4-9.2,6.3-13.4,5.2c-2.9-0.8-3.2-9.2-7.1-12.3c-4.4-3.6-9.8-5.1-15.3-4.9c-2.4,0.1-7.2,0.1-9.1,1.9
										c-2-1.8-6.8-1.8-9.1-1.9c-5.5-0.2-10.9,1.3-15.3,4.9c-3.8,3.1-4.2,11.5-7.1,12.3c-4.3,1.1-10.2-2.9-13.4-5.2
										c-6.4-4.6-7.9-15.4-8.4-22.5C30,42.9,31.3,32.4,27.9,24c-1.7,0-0.6,16.1-0.6,16.1v20.4c0,15.3,9.6,38.2,30.8,46.9
										C63.3,109.5,75,113,84,113s20.7-3.1,25.9-5.3c21.2-8.7,30.7-32,30.8-47.2V40.1C140.6,40.1,141.7,24,140.1,24"/>
								</g>
								<defs>
									<filter id="Adobe_OpacityMaskFilter_12_" filterUnits="userSpaceOnUse" x="-32" y="-2" width="264" height="244">
										<feColorMatrix  type="matrix" values="1 0 0 0 0  0 1 0 0 0  0 0 1 0 0  0 0 0 1 0"/>
									</filter>
								</defs>
								<mask maskUnits="userSpaceOnUse" x="-32" y="-2" width="264" height="244" id="react-mask-226_1_">
									<g class="st36">
										<path id="react-path-227_1_" class="st2" d="M101.4,96.2c-2.5,2.3-5.2,3.3-8.6,2.6c-0.6-0.1-3-4.5-8.9-4.5
											c-5.9,0-8.3,4.4-8.9,4.5c-3.4,0.7-6.1-0.3-8.6-2.6c-4.7-4.3-8.7-10.3-6.3-16.7c1.2-3.4,3.2-7.1,6.9-8.2
											c3.9-1.2,9.3,0,13.3-0.8c1.3-0.3,2.7-0.7,3.6-1.5c0.9,0.8,2.3,1.2,3.6,1.5c3.9,0.8,9.4-0.4,13.3,0.8
											c3.6,1.1,5.6,4.8,6.9,8.2C110.1,85.9,106.2,91.9,101.4,96.2 M140.1,24c-3.4,8.4-2.1,18.9-2.7,27.7
											c-0.5,7.2-2,17.9-8.4,22.5c-3.3,2.4-9.2,6.3-13.4,5.2c-2.9-0.8-3.2-9.2-7.1-12.3c-4.4-3.6-9.8-5.1-15.3-4.9
											c-2.4,0.1-7.2,0.1-9.1,1.9c-2-1.8-6.8-1.8-9.1-1.9c-5.5-0.2-10.9,1.3-15.3,4.9c-3.8,3.1-4.2,11.5-7.1,12.3
											c-4.3,1.1-10.2-2.9-13.4-5.2c-6.4-4.6-7.9-15.4-8.4-22.5C30,42.9,31.3,32.4,27.9,24c-1.7,0-0.6,16.1-0.6,16.1v20.4
											c0,15.3,9.6,38.2,30.8,46.9C63.3,109.5,75,113,84,113s20.7-3.1,25.9-5.3c21.2-8.7,30.7-32,30.8-47.2V40.1
											C140.6,40.1,141.7,24,140.1,24"/>
									</g>
								</mask>
								<g class="st37">
									<g transform="translate(-32.000000, 0.000000)">
										<rect y="-2" class="st38" width="264" height="244"/>
									</g>
								</g>
							</g>
							<g id="Short-Hair">
								<path class="st39" d="M180.1,37.9c-2.8-2.8-6-5.2-9.1-7.6c-0.7-0.5-1.4-1-2.1-1.6c-0.2-0.1-1.7-1.2-1.9-1.7
									c-0.5-1-0.2-0.2-0.1-1.4c0.1-1.5,3.1-5.7,0.9-6.7c-1-0.4-2.8,0.7-3.8,1.1c-1.9,0.7-3.8,1.4-5.7,1.9c0.9-1.9,2.7-5.6-0.6-4.6
									c-2.6,0.8-5,2.8-7.6,3.7c0.9-1.4,4.3-5.8,1.2-6.1c-1-0.1-3.8,1.7-4.9,2.1c-3.1,1.2-6.3,1.9-9.6,2.5
									c-11.2,2-24.3,1.4-34.7,6.5c-8,3.9-15.9,10-20.5,17.8c-4.4,7.5-6.1,15.7-7,24.3c-0.7,6.3-0.7,12.8-0.4,19.1
									c0.1,2.1,0.3,11.6,3.3,8.7c1.5-1.4,1.5-7.3,1.9-9.2c0.8-3.9,1.5-7.8,2.7-11.6c2.2-6.7,4.8-13.8,10.3-18.4
									c3.5-3,6-6.9,9.4-9.9c1.5-1.3,0.4-1.2,2.8-1c1.6,0.1,3.3,0.2,4.9,0.2c3.8,0.1,7.6,0.1,11.4,0.1c7.6,0,15.3,0.1,22.9-0.3
									c3.4-0.2,6.8-0.3,10.2-0.6c1.9-0.2,5.2-1.4,6.8-0.5c1.4,0.8,2.9,3.6,3.9,4.7c2.4,2.7,5.3,4.7,8.1,6.9
									c5.9,4.6,8.9,10.3,10.7,17.5c1.8,7.1,1.3,13.7,3.5,20.8c0.4,1.2,1.4,3.4,2.7,1.5c0.2-0.4,0.2-2.3,0.2-3.4
									c0-4.5,1.1-7.9,1.1-12.5C190.9,66.5,190.5,48.5,180.1,37.9z"/>
							</g>
							<defs>
								<filter id="Adobe_OpacityMaskFilter_13_" filterUnits="userSpaceOnUse" x="0" y="-2" width="264" height="280">
									<feColorMatrix  type="matrix" values="1 0 0 0 0  0 1 0 0 0  0 0 1 0 0  0 0 0 1 0"/>
								</filter>
							</defs>
							<mask maskUnits="userSpaceOnUse" x="0" y="-2" width="264" height="280" id="react-mask-212_1_">
								<g class="st40">
									<path id="react-path-214_1_" class="st2" d="M180.1,37.9c-2.8-2.8-6-5.2-9.1-7.6c-0.7-0.5-1.4-1-2.1-1.6
										c-0.2-0.1-1.7-1.2-1.9-1.7c-0.5-1-0.2-0.2-0.1-1.4c0.1-1.5,3.1-5.7,0.9-6.7c-1-0.4-2.8,0.7-3.8,1.1
										c-1.9,0.7-3.8,1.4-5.7,1.9c0.9-1.9,2.7-5.6-0.6-4.6c-2.6,0.8-5,2.8-7.6,3.7c0.9-1.4,4.3-5.8,1.2-6.1
										c-1-0.1-3.8,1.7-4.9,2.1c-3.1,1.2-6.3,1.9-9.6,2.5c-11.2,2-24.3,1.4-34.7,6.5c-8,3.9-15.9,10-20.5,17.8
										c-4.4,7.5-6.1,15.7-7,24.3c-0.7,6.3-0.7,12.8-0.4,19.1c0.1,2.1,0.3,11.6,3.3,8.7c1.5-1.4,1.5-7.3,1.9-9.2
										c0.8-3.9,1.5-7.8,2.7-11.6c2.2-6.7,4.8-13.8,10.3-18.4c3.5-3,6-6.9,9.4-9.9c1.5-1.3,0.4-1.2,2.8-1c1.6,0.1,3.3,0.2,4.9,0.2
										c3.8,0.1,7.6,0.1,11.4,0.1c7.6,0,15.3,0.1,22.9-0.3c3.4-0.2,6.8-0.3,10.2-0.6c1.9-0.2,5.2-1.4,6.8-0.5
										c1.4,0.8,2.9,3.6,3.9,4.7c2.4,2.7,5.3,4.7,8.1,6.9c5.9,4.6,8.9,10.3,10.7,17.5c1.8,7.1,1.3,13.7,3.5,20.8
										c0.4,1.2,1.4,3.4,2.7,1.5c0.2-0.4,0.2-2.3,0.2-3.4c0-4.5,1.1-7.9,1.1-12.5C190.9,66.5,190.5,48.5,180.1,37.9z"/>
								</g>
							</mask>
							<g class="st41">
								<g transform="translate(0.000000, 0.000000) ">
									<rect y="-2" class="st38" width="264" height="280"/>
								</g>
							</g>
							<g transform="translate(62.000000, 85.000000)">
								<g id="Wayfarers" transform="translate(6.000000, 7.000000)">
									<path id="Left" class="st42" d="M34,39h-2.8C17.3,39,9,31.3,9,18.5C9,8.1,10.8-2,32.5-2h2.9C57.2-2,59,8.1,59,18.5
										C59,30.6,48.7,39,34,39z M32.4,4C13,4,13,10.8,13,19.5C13,26.6,16.1,35,31,35h3c12.4,0,21-6.4,21-15.5C55,10.8,55,4,35.6,4
										H32.4z"/>
									<path id="Right" class="st42" d="M96,39h-2.8C79.3,39,71,31.3,71,18.5C71,8.1,72.8-2,94.5-2h2.9C119.2-2,121,8.1,121,18.5
										C121,30.6,110.7,39,96,39z M94.4,4C75,4,75,10.8,75,19.5C75,26.6,78.1,35,93,35h3c12.4,0,21-6.4,21-15.5
										C117,10.8,117,4,97.6,4H94.4z"/>
									<path id="Stuff" class="st42" d="M3,3.8C3.6,3.1,11.2-2,32.5-2c17.9,0,21.6,1.9,27.4,4.7l0.4,0.2c0.4,0.1,2.4,0.8,4.8,0.9
										c2.2-0.1,4-0.7,4.6-0.9C76.2-0.3,82.6-2,97.5-2c21.3,0,28.9,5.1,29.5,5.8c1.6,0,3,1.3,3,2.9v2.9c0,1.6-1.3,2.9-3,2.9
										c0,0-6.9,0-6.9,2.9s-2-4.2-2-5.8V6.7c-3.6-1.4-10.1-3.9-20.7-3.9C85.7,2.8,79.8,4.9,74.7,7l0.1,0.1l0,2l-2.2,5.3l-2.7-1.1
										c-0.2-0.1-0.8-0.3-1.5-0.5c-2-0.5-4.1-0.7-6-0.3c-0.7,0.1-1.3,0.3-1.9,0.6l-2.6,1.3l-2.6-5.2l0.1-2.3l0.1-0.2
										c-4.4-2-8.4-4.1-22.8-4.1c-10.6,0-17.1,2.6-20.7,3.9v2.8c0,1.6-3,8.7-3,5.8S3,12.4,3,12.4c-1.6,0-3-1.3-3-2.9V6.7
										C0,5.1,1.3,3.8,3,3.8z"/>
								</g>
							</g>
						</g>
					</g>
				</g>
			</g>
		</g>
	</g>
</g>
</svg>
