{
	"asset":{
		"version":"2.0",
		"generator":"Created using the official Cinema 4D glTF Exporter 1.000x290161"
	},
	"scenes":[{
		"nodes":[0]
	}],
	"nodes":[{
		"name":"Extrude.1",
		"translation":[-0.1316009759902954,
		10.583625793457032,
		-1.7094500064849854],
		"rotation":[0.0,
		0.0,
		0.0,
		-1.0],
		"scale":[1.0,
		1.0,
		1.0],
		"children":[1]
	},
	{
		"name":"logo_09_C4D_v2",
		"children":[2]
	},
	{
		"name":"logo_09_C4D_v2",
		"children":[3,
		4,
		5]
	},
	{
		"name":"Path 1",
		"translation":[-44.36589050292969,
		-0.17255087196826936,
		0.0],
		"rotation":[0.0,
		0.0,
		0.0,
		-1.0],
		"scale":[1.0,
		1.0,
		1.0],
		"mesh":0
	},
	{
		"name":"Path 2",
		"translation":[-144.05996704101563,
		-0.17255087196826936,
		0.0],
		"rotation":[0.0,
		0.0,
		0.0,
		-1.0],
		"scale":[1.0,
		1.0,
		1.0],
		"mesh":1
	},
	{
		"name":"Path 3",
		"translation":[144.05996704101563,
		0.17255087196826936,
		0.0],
		"rotation":[0.0,
		0.0,
		0.0,
		-1.0],
		"scale":[1.0,
		1.0,
		1.0],
		"mesh":2
	}],
	"meshes":[{
		"primitives":[{
			"attributes":{
				"POSITION":1,
				"NORMAL":2,
				"TEXCOORD_0":3
			},
			"indices":0,
			"material":0
		}]
	},
	{
		"primitives":[{
			"attributes":{
				"POSITION":5,
				"NORMAL":6,
				"TEXCOORD_0":7
			},
			"indices":4,
			"material":0
		}]
	},
	{
		"primitives":[{
			"attributes":{
				"POSITION":9,
				"NORMAL":10,
				"TEXCOORD_0":11
			},
			"indices":8,
			"material":0
		}]
	}],
	"accessors":[{
		"bufferView":0,
		"type":"SCALAR",
		"componentType":5123,
		"count":6240,
		"byteOffset":0,
		"min":[0],
		"max":[1325]
	},
	{
		"bufferView":1,
		"type":"VEC3",
		"componentType":5126,
		"count":1326,
		"byteOffset":0,
		"min":[-92.12845611572266,
		-108.05641174316406,
		-3.1187448501586916],
		"max":[92.12845611572266,
		108.05641174316406,
		53.58256530761719]
	},
	{
		"bufferView":1,
		"type":"VEC3",
		"componentType":5126,
		"count":1326,
		"byteOffset":12,
		"min":[-0.9998136162757874,
		-0.9999985098838806,
		-1.0],
		"max":[0.999997615814209,
		1.0,
		1.0]
	},
	{
		"bufferView":1,
		"type":"VEC2",
		"componentType":5126,
		"count":1326,
		"byteOffset":24,
		"min":[0.0,
		0.0],
		"max":[1.0,
		1.0]
	},
	{
		"bufferView":2,
		"type":"SCALAR",
		"componentType":5123,
		"count":6372,
		"byteOffset":0,
		"min":[0],
		"max":[1347]
	},
	{
		"bufferView":3,
		"type":"VEC3",
		"componentType":5126,
		"count":1348,
		"byteOffset":0,
		"min":[-90.34820556640625,
		-108.05641174316406,
		-3.1187448501586916],
		"max":[90.34820556640625,
		108.05641174316406,
		53.58256530761719]
	},
	{
		"bufferView":3,
		"type":"VEC3",
		"componentType":5126,
		"count":1348,
		"byteOffset":12,
		"min":[-0.9999236464500427,
		-0.9999976754188538,
		-1.0],
		"max":[0.999997615814209,
		1.0,
		1.0]
	},
	{
		"bufferView":3,
		"type":"VEC2",
		"componentType":5126,
		"count":1348,
		"byteOffset":24,
		"min":[0.0,
		0.0],
		"max":[1.0,
		1.0]
	},
	{
		"bufferView":4,
		"type":"SCALAR",
		"componentType":5123,
		"count":13260,
		"byteOffset":0,
		"min":[0],
		"max":[2843]
	},
	{
		"bufferView":5,
		"type":"VEC3",
		"componentType":5126,
		"count":2844,
		"byteOffset":0,
		"min":[-182.03982543945313,
		-108.2363052368164,
		-3.1187448501586916],
		"max":[182.03982543945313,
		108.2363052368164,
		53.58256530761719]
	},
	{
		"bufferView":5,
		"type":"VEC3",
		"componentType":5126,
		"count":2844,
		"byteOffset":12,
		"min":[-1.0,
		-1.0,
		-1.0],
		"max":[1.0,
		1.0,
		1.0]
	},
	{
		"bufferView":5,
		"type":"VEC2",
		"componentType":5126,
		"count":2844,
		"byteOffset":24,
		"min":[0.0,
		0.0],
		"max":[1.0,
		1.0]
	}],
	"bufferViews":[{
		"buffer":0,
		"byteOffset":0,
		"byteLength":12480,
		"target":34963
	},
	{
		"buffer":0,
		"byteOffset":12480,
		"byteLength":42432,
		"target":34962,
		"byteStride":32
	},
	{
		"buffer":1,
		"byteOffset":0,
		"byteLength":12744,
		"target":34963
	},
	{
		"buffer":1,
		"byteOffset":12744,
		"byteLength":43136,
		"target":34962,
		"byteStride":32
	},
	{
		"buffer":2,
		"byteOffset":0,
		"byteLength":26520,
		"target":34963
	},
	{
		"buffer":2,
		"byteOffset":26520,
		"byteLength":91008,
		"target":34962,
		"byteStride":32
	}],
	"buffers":[{
		"uri":"data:application/octet-stream;base64,",
		"byteLength":54912
	},
	{
		"uri":"data:application/octet-stream;base64,",
		"byteLength":55880
	},
	{
		"uri":"data:application/octet-stream;base64,",
		"byteLength":117528
	}],
	"materials":[{
		"pbrMetallicRoughness":{
			"baseColorFactor":[0.2,
			0.7800000000000001,
			0.8,
			1.0],
			"metallicFactor":0.76,
			"roughnessFactor":0.009999999999999997
		},
		"emissiveFactor":[0.0,
		0.0,
		0.0],
		"alphaMode":"OPAQUE",
		"doubleSided":true,
		"name":"Mat"
	}]
}