<svg xmlns="http://www.w3.org/2000/svg" width="174.578" height="72.38">
  <defs>
    <style>
      .a{fill:#3e91a2}
    </style>
  </defs>
  <path class="a" d="M66.352 47.406c-5.686.1-9.416-3.025-10.28-7.947-.938-7.43-.4-39.284-.4-39.284H32.804c.177 14.32-.542 36.31 1.588 44.9 4.895 19.731 20.88 26.235 35.216 27.124 2.6.161 5.08.121 7.488.121 1.053 0 2.143.07 3.137.064 6.23-.042 12.071-.245 14.133-.016-20.205-2.878-28.014-24.962-28.014-24.962z"/>
  <path class="a" d="M33.043 47.406c-5.686.1-9.118-3.025-9.983-7.947-.938-7.43-.4-39.284-.4-39.284H.09c.177 14.32-.84 36.31 1.291 44.9 4.895 19.731 20.88 26.235 35.216 27.124 2.6.161 5.08.121 7.488.121 1.053 0 2.143.07 3.137.064 6.23-.042 11.179-.245 13.241-.016-21.801-3.432-27.42-24.962-27.42-24.962zM143.957.841c-4.406-.4-22.893-.669-22.893-.669h-19.032v45.527h22.919V23.885l15.65.254s9.34.829 9.368 12.37c-.126 7.482-6.029 10.136-8.37 10.9a5.3 5.3 0 0 1-1.655.258l-34.574-.121h-1.784c-10.349-.291-11.532-4.829-12.326-8.855-.938-7.43-.579-38.689-.579-38.689H65.718c.178 14.32-1.147 36.522 1.706 44.9 9.068 26.613 33.11 27.514 38 27.415v.014s33.616-.051 37.98-.062c4.147-.011 30.693-7.256 31.164-35.992S149.161 1.312 143.957.841z"/>
</svg>
